<?xml version="1.0" encoding="utf-8"?>
<!-- Generator: Adobe Illustrator 24.1.3, SVG Export Plug-In . SVG Version: 6.00 Build 0)  -->
<svg version="1.1" id="Layer_1" xmlns="http://www.w3.org/2000/svg" xmlns:xlink="http://www.w3.org/1999/xlink" x="0px" y="0px"
	 viewBox="0 0 100 100" style="enable-background:new 0 0 100 100;" xml:space="preserve">
<style type="text/css">
	.st0{fill:none;stroke:#000000;stroke-width:2;stroke-linecap:round;stroke-linejoin:round;stroke-miterlimit:10;}
</style>
<g>
	<path class="st0" d="M93.62,42.74C93.62,16.73,74.09,3.26,50,3.26S6.38,16.73,6.38,42.74C27.38,52.83,74.78,53.07,93.62,42.74"/>
	<path class="st0" d="M15.74,47.02V58.8c19.42,5.8,50.41,5.91,68.51-0.01V47.15"/>
	<polyline class="st0" points="15.09,50.3 11.44,50.3 6.38,68.6 	"/>
	<polyline class="st0" points="84.26,50.3 88.56,50.3 93.62,68.6 6.38,68.6 	"/>
	<polyline class="st0" points="6.38,68.6 6.38,96.74 93.62,96.74 93.62,68.6 	"/>
	<line class="st0" x1="6.38" y1="82.67" x2="87.01" y2="82.67"/>
	<path class="st0" d="M20.07,32.76c0,0,2.82-12.35,17.06-16.47"/>
</g>
</svg>
